<?xml version="1.0" encoding="UTF-8" standalone="no"?>
<!-- Created with Inkscape (http://www.inkscape.org/) -->

<svg
   width="39.316845mm"
   height="39.316399mm"
   viewBox="0 0 39.316845 39.316399"
   version="1.1"
   id="svg1"
   xml:space="preserve"
   xmlns="http://www.w3.org/2000/svg"
   xmlns:svg="http://www.w3.org/2000/svg"><defs
     id="defs1" /><g
     style="fill:#3486ff;fill-opacity:1"
     id="g6"
     transform="matrix(1.787109,0,0,1.787109,-164.41403,-25.01953)"><path
       d="m 103.959,21.7772 c 0,1.6083 -1.303,2.9117 -2.912,2.9117 -1.6079,0 -2.9114,-1.3034 -2.9114,-2.9117 0,-1.6082 1.3035,-2.9117 2.9114,-2.9117 1.608,0 2.912,1.3038 2.912,2.9117 z m 9.472,13.6541 C 113.052,35.8105 112.555,36 112.059,36 c -0.497,0 -0.994,-0.1895 -1.373,-0.5687 0,0 -4.944,-4.9493 -4.983,-4.9978 -1.383,0.8829 -3.025,1.3966 -4.788,1.3966 C 95.9913,31.8301 92,27.8387 92,22.9151 92,17.9913 95.9916,14 100.915,14 c 4.923,0 8.915,3.9913 8.915,8.915 0,1.7629 -0.514,3.4048 -1.397,4.7882 0.049,0.0388 4.998,4.9833 4.998,4.9833 0.759,0.7577 0.759,1.9868 0,2.7448 z M 107.973,22.915 c 0,-3.8978 -3.16,-7.0577 -7.058,-7.0577 -3.8977,0 -7.0576,3.1599 -7.0576,7.0577 0,2.2495 1.0537,4.2518 2.693,5.5443 0.2132,-1.5801 1.5639,-2.7995 3.2025,-2.7995 h 2.5881 c 1.572,0 2.88,1.1207 3.173,2.606 1.505,-1.2944 2.459,-3.2106 2.459,-5.3508 z"
       fill="#696d97"
       id="path2"
       style="fill:#3486ff;fill-opacity:1" /></g></svg>
